<svg xmlns="http://www.w3.org/2000/svg" viewBox="0 0 900 480" role="img" aria-labelledby="title">
  <title id="title">Конструкция греющего кабеля</title>
  <rect width="900" height="480" fill="#f3f4f2"/>
  <g stroke="#d82335" stroke-width="2" opacity="0.5">
    <path d="M490 250 60 36M490 250 110 0M490 250 0 160M490 250 0 320M490 250 145 480M490 250 830 0M490 250 900 120M490 250 870 420"/>
  </g>
  <g transform="rotate(11 430 250)">
    <path d="M-80 165h520c38 0 68 30 68 68s-30 68-68 68H-80z" fill="#c8cdd0"/>
    <path d="M155 165h285c38 0 68 30 68 68s-30 68-68 68H155z" fill="#888f95"/>
    <path d="M320 178h270c42 0 76 34 76 76s-34 76-76 76H320z" fill="#2a2d31"/>
    <g stroke="#1b1d20" stroke-width="10">
      <path d="M380 186 610 321M410 182 640 318M440 181 670 315M470 181 700 310"/>
    </g>
    <g stroke="#d82335" stroke-width="18" stroke-linecap="round">
      <path d="M540 221h185"/>
      <path d="M540 285h185"/>
    </g>
    <g stroke="#d8dde0" stroke-width="12" stroke-linecap="round">
      <path d="M720 221h80"/>
      <path d="M720 285h80"/>
    </g>
  </g>
</svg>
