<svg xmlns="http://www.w3.org/2000/svg" viewBox="0 0 900 480" role="img" aria-labelledby="title">
  <title id="title">Бухты нагревательного кабеля</title>
  <rect width="900" height="480" fill="#f4f5f3"/>
  <g stroke="#d82335" stroke-width="2" opacity="0.55">
    <path d="M450 240 50 38M450 240 92 0M450 240 0 160M450 240 0 290M450 240 90 480M450 240 815 0M450 240 900 122M450 240 880 360M450 240 742 480"/>
  </g>
  <g transform="translate(110 125)">
    <ellipse cx="150" cy="220" rx="150" ry="32" fill="#151719" opacity="0.28"/>
    <rect x="0" y="60" width="300" height="160" rx="42" fill="#bf1e2f"/>
    <ellipse cx="0" cy="140" rx="44" ry="80" fill="#941827"/>
    <ellipse cx="300" cy="140" rx="44" ry="80" fill="#e43a49"/>
    <g stroke="#8c1524" stroke-width="8" opacity="0.75">
      <path d="M10 88h280M10 115h280M10 142h280M10 169h280M10 196h280"/>
    </g>
  </g>
  <g transform="translate(290 72)">
    <ellipse cx="170" cy="292" rx="175" ry="35" fill="#151719" opacity="0.3"/>
    <rect x="0" y="55" width="340" height="230" rx="58" fill="#5a6065"/>
    <ellipse cx="0" cy="170" rx="54" ry="115" fill="#303438"/>
    <ellipse cx="340" cy="170" rx="54" ry="115" fill="#777f85"/>
    <g stroke="#303438" stroke-width="9" opacity="0.78">
      <path d="M12 82h316M12 116h316M12 150h316M12 184h316M12 218h316M12 252h316"/>
    </g>
  </g>
  <g transform="translate(575 136)">
    <ellipse cx="112" cy="208" rx="115" ry="28" fill="#151719" opacity="0.26"/>
    <rect x="0" y="48" width="224" height="160" rx="42" fill="#22252a"/>
    <ellipse cx="0" cy="128" rx="38" ry="80" fill="#131519"/>
    <ellipse cx="224" cy="128" rx="38" ry="80" fill="#343940"/>
    <g stroke="#111316" stroke-width="7" opacity="0.85">
      <path d="M8 78h210M8 108h210M8 138h210M8 168h210M8 198h210"/>
    </g>
  </g>
</svg>
