<svg xmlns="http://www.w3.org/2000/svg" viewBox="0 0 1200 760" role="img" aria-labelledby="title">
  <title id="title">Архитектурный объект с электрообогревом</title>
  <defs>
    <linearGradient id="bg" x1="0" x2="1" y1="0" y2="1">
      <stop offset="0" stop-color="#111316"/>
      <stop offset="0.45" stop-color="#30333a"/>
      <stop offset="1" stop-color="#f4f7f8"/>
    </linearGradient>
    <radialGradient id="heat" cx="76%" cy="24%" r="46%">
      <stop offset="0" stop-color="#d82335" stop-opacity="0.8"/>
      <stop offset="1" stop-color="#d82335" stop-opacity="0"/>
    </radialGradient>
  </defs>
  <rect width="1200" height="760" fill="url(#bg)"/>
  <rect width="1200" height="760" fill="url(#heat)"/>
  <g transform="translate(130 165)">
    <path d="M0 490 270 0l720 110-95 420z" fill="#e8edf1" opacity="0.9"/>
    <path d="M270 0 460 250 990 110z" fill="#cfd9e1"/>
    <path d="M460 250 0 490l895 40z" fill="#aebbc6"/>
    <g fill="none" stroke="#27313d" stroke-width="3" opacity="0.85">
      <path d="M75 435 270 0 460 250 990 110"/>
      <path d="M150 395 335 78 560 230 890 138"/>
      <path d="M235 350 405 145 690 205 800 168"/>
      <path d="M330 302 522 185 620 318 460 250"/>
      <path d="M460 250 650 530M560 230 760 524M690 205 895 530"/>
      <path d="M0 490 460 250 895 530M150 395 650 530M235 350 760 524"/>
    </g>
    <path d="M620 360h245l-38 132H590z" fill="#4f6172" opacity="0.58"/>
  </g>
</svg>
